<svg aria-hidden="true" focusable="false" width="577" height="60" viewBox="0 0 577 60" fill="none" xmlns="http://www.w3.org/2000/svg">
<rect width="577" height="60" rx="10" fill="#83B3D3"/>
<path d="M265.988 31.14H260.868V37H258.128V23H260.868V28.7H265.988V23H268.728V37H265.988V31.14ZM278.055 33.9H273.755L272.695 37H269.955L274.995 22.9H277.015L282.055 37H279.175L278.055 33.9ZM274.455 31.7H277.455L276.415 28.58L275.995 26.38H275.895L275.475 28.6L274.455 31.7ZM291.424 29.24L291.584 27.42H291.484L290.544 29.3L285.324 37H283.264V23H286.004V30.62L285.804 32.5H285.924L286.904 30.56L292.124 23H294.164V37H291.424V29.24ZM287.524 19.52C287.578 19.9467 287.731 20.2533 287.984 20.44C288.251 20.6267 288.591 20.72 289.004 20.72C289.898 20.72 290.391 20.3267 290.484 19.54L292.704 19.88C292.558 20.72 292.171 21.3333 291.544 21.72C290.931 22.1067 290.078 22.3 288.984 22.3C288.438 22.3 287.938 22.26 287.484 22.18C287.031 22.1 286.631 21.9733 286.284 21.8C285.951 21.6133 285.671 21.3667 285.444 21.06C285.231 20.7533 285.098 20.3733 285.044 19.92L287.524 19.52ZM306.525 25.44H302.445V37H299.705V25.44H295.605V23H306.525V25.44ZM316.112 29.24L316.272 27.42H316.172L315.232 29.3L310.012 37H307.952V23H310.692V30.62L310.492 32.5H310.612L311.592 30.56L316.812 23H318.852V37H316.112V29.24Z" fill="white"/>
</svg>
